HIERARCHY
ROOT Hips
{
	OFFSET -0.001795 -0.223333 0.028219
	CHANNELS 6 Xposition Yposition Zposition Zrotation Yrotation Xrotation 
	JOINT LeftUpLeg
	{
		OFFSET 0.069520 -0.091406 -0.006815
		CHANNELS 3 Zrotation Yrotation Xrotation
		JOINT LeftLeg
		{
			OFFSET 0.034277 -0.375199 -0.004496
			CHANNELS 3 Zrotation Yrotation Xrotation
			JOINT LeftFoot
			{
				OFFSET -0.013596 -0.397961 -0.043693
				CHANNELS 3 Zrotation Yrotation Xrotation
				JOINT LeftToe
				{
					OFFSET 0.026358 -0.055791 0.119288
					CHANNELS 3 Zrotation Yrotation Xrotation
					End Site
					{
						OFFSET 0.000000 0.000000 0.000000
					}
				}
			}
		}
	}
	JOINT RightUpLeg
	{
		OFFSET -0.067670 -0.090522 -0.004320
		CHANNELS 3 Zrotation Yrotation Xrotation
		JOINT RightLeg
		{
			OFFSET -0.038290 -0.382569 -0.008850
			CHANNELS 3 Zrotation Yrotation Xrotation
			JOINT RightFoot
			{
				OFFSET 0.015774 -0.398415 -0.042312
				CHANNELS 3 Zrotation Yrotation Xrotation
				JOINT RightToe
				{
					OFFSET -0.025372 -0.048144 0.123348
					CHANNELS 3 Zrotation Yrotation Xrotation
					End Site
					{
						OFFSET 0.000000 0.000000 0.000000
					}
				}
			}
		}
	}
	JOINT Spine
	{
		OFFSET -0.002533 0.108963 -0.026696
		CHANNELS 3 Zrotation Yrotation Xrotation
		JOINT Spine1
		{
			OFFSET 0.005487 0.135180 0.001092
			CHANNELS 3 Zrotation Yrotation Xrotation
			JOINT Spine2
			{
				OFFSET 0.001457 0.052922 0.025425
				CHANNELS 3 Zrotation Yrotation Xrotation
				JOINT Neck
				{
					OFFSET -0.002778 0.213870 -0.042857
					CHANNELS 3 Zrotation Yrotation Xrotation
					JOINT Head
					{
						OFFSET 0.005152 0.064970 0.051349
						CHANNELS 3 Zrotation Yrotation Xrotation
						End Site
						{
							OFFSET 0.000000 0.000000 0.000000
						}
					}
				}
				JOINT LeftShoulder
				{
					OFFSET 0.078845 0.121749 -0.034090
					CHANNELS 3 Zrotation Yrotation Xrotation
					JOINT LeftArm
					{
						OFFSET 0.090977 0.030469 -0.008868
						CHANNELS 3 Zrotation Yrotation Xrotation
						JOINT LeftForeArm
						{
							OFFSET 0.259612 -0.012772 -0.027456
							CHANNELS 3 Zrotation Yrotation Xrotation
							JOINT LeftHand
							{
								OFFSET 0.249234 0.008986 -0.001171
								CHANNELS 3 Zrotation Yrotation Xrotation
								End Site
								{
									OFFSET 0.000000 0.000000 0.000000
								}
							}
						}
					}
				}
				JOINT RightShoulder
				{
					OFFSET -0.081759 0.118833 -0.038615
					CHANNELS 3 Zrotation Yrotation Xrotation
					JOINT RightArm
					{
						OFFSET -0.096012 0.032551 -0.009143
						CHANNELS 3 Zrotation Yrotation Xrotation
						JOINT RightForeArm
						{
							OFFSET -0.253742 -0.013329 -0.021401
							CHANNELS 3 Zrotation Yrotation Xrotation
							JOINT RightHand
							{
								OFFSET -0.255298 0.007772 -0.005559
								CHANNELS 3 Zrotation Yrotation Xrotation
								End Site
								{
									OFFSET 0.000000 0.000000 0.000000
								}
							}
						}
					}
				}
			}
		}
	}
}
MOTION
Frames: 8
Frame Time: 0.050000
0.025040 0.947615 0.023564 -2.448682 7.998423 -8.249734 9.979451 -0.160533 1.247795 -6.217019 0.647733 12.683410 7.017675 16.044490 10.241056 0.000000 0.000000 0.000000 -4.407322 -0.575335 6.672757 4.544770 -0.630867 5.423897 -11.007389 -24.251008 16.012375 0.000000 0.000000 0.000000 -0.916445 -0.760190 16.312028 -11.651632 2.903931 -31.103984 3.731359 9.115545 27.690519 10.878603 -3.015535 -24.363338 0.000000 0.000000 0.000000 20.084826 6.347714 2.109814 -2.529066 -28.029202 -2.455651 63.487982 -48.711036 -36.059440 0.000000 0.000000 0.000000 1.735476 -1.315876 -0.424516 35.289344 23.234507 1.099416 29.716781 59.009661 23.776625 0.000000 0.000000 0.000000 
0.026441 0.947003 0.020687 -2.874102 9.035677 -9.210860 9.924149 -0.174350 1.575406 -5.620582 0.484255 13.267284 6.751976 15.641664 10.010313 0.000000 0.000000 0.000000 -3.689475 -0.689348 7.297788 3.376535 -0.442453 6.642736 -10.415620 -23.218283 15.925058 0.000000 0.000000 0.000000 -0.377522 -0.873512 16.614461 -11.112021 2.886022 -30.488215 2.734333 7.634040 27.822141 11.303993 -2.796556 -27.800875 0.000000 0.000000 0.000000 22.194182 1.646251 2.945397 -1.164113 -31.681999 -3.152770 86.871783 -60.794141 -63.623064 0.000000 0.000000 0.000000 0.307613 -0.540478 -0.298312 35.619066 26.606884 2.247164 49.606314 65.744615 41.878811 0.000000 0.000000 0.000000 
0.027471 0.946113 0.017883 -3.172431 8.917723 -9.965841 9.846998 -0.150742 1.470964 -5.566983 0.456348 14.430597 7.678452 17.024758 9.946625 0.000000 0.000000 0.000000 -3.582116 -0.707052 7.365710 3.389108 -0.456557 8.311429 -10.748286 -23.899681 15.285134 0.000000 0.000000 0.000000 0.151627 -0.987957 17.289840 -11.231523 2.943139 -30.262253 1.586542 6.117743 27.679573 11.652243 -3.095264 -28.802198 0.000000 0.000000 0.000000 24.247190 -3.660275 3.402197 -0.599950 -34.747840 -3.595055 124.606883 -68.090649 -109.100773 0.000000 0.000000 0.000000 -2.210427 1.136381 0.035956 36.419925 29.429658 3.522145 68.534185 71.191823 61.713850 0.000000 0.000000 0.000000 
0.028169 0.945074 0.015353 -3.177654 8.204675 -10.150772 9.927149 -0.129501 1.028974 -5.292891 0.412612 14.919033 7.817102 17.253568 10.193306 0.000000 0.000000 0.000000 -3.752834 -0.658991 7.038476 3.307494 -0.431905 9.058519 -10.893560 -24.203208 15.108702 0.000000 0.000000 0.000000 0.670826 -0.968115 16.444899 -11.506411 3.233794 -28.183514 0.588382 4.152465 26.478554 10.445418 -2.535425 -29.952264 0.000000 0.000000 0.000000 24.709825 -7.667305 3.336426 -1.400387 -37.353552 -3.479734 157.139106 -69.004943 -149.697222 0.000000 0.000000 0.000000 -2.604984 1.956839 0.364877 35.490318 31.837749 4.075956 80.139563 75.216045 75.344021 0.000000 0.000000 0.000000 
0.028268 0.944233 0.013531 -2.910938 6.100910 -10.163878 9.890190 -0.066627 1.198887 -5.905806 0.634518 14.760545 8.448458 18.181986 10.547559 0.000000 0.000000 0.000000 -4.096862 -0.533340 6.162612 3.633220 -0.468378 10.915929 -10.851559 -24.259392 14.823512 0.000000 0.000000 0.000000 0.181612 -0.857650 16.376642 -10.417029 2.879531 -29.545542 -0.138376 3.936966 27.822253 9.659546 -2.154043 -31.177822 0.000000 0.000000 0.000000 25.470688 -9.993738 3.101888 -3.410041 -35.622764 -2.698103 170.192817 -66.545078 -166.250047 0.000000 0.000000 0.000000 -2.671953 0.911259 0.054824 32.291771 31.685631 3.235576 91.040525 77.705934 87.664207 0.000000 0.000000 0.000000 
0.027662 0.943763 0.012407 -2.617314 4.071058 -9.955573 9.448944 -0.005458 0.561208 -5.750141 0.682305 15.135080 9.505156 19.714892 10.588561 0.000000 0.000000 0.000000 -4.312774 -0.396727 4.964250 3.736893 -0.442336 11.973543 -10.470982 -23.806890 13.720133 0.000000 0.000000 0.000000 -0.315331 -0.686420 15.184610 -9.901908 2.823002 -29.007107 -0.716849 3.720268 27.916068 7.696308 -1.290765 -31.111066 0.000000 0.000000 0.000000 24.930150 -9.605799 2.762539 -3.236524 -35.418727 -2.535495 168.943929 -70.024922 -164.380551 0.000000 0.000000 0.000000 -2.354696 -0.328581 -0.275053 29.093561 28.767638 1.861595 92.896104 80.106250 90.789770 0.000000 0.000000 0.000000 
0.025956 0.943838 0.012289 -2.514878 2.481209 -9.877097 9.675915 0.033855 0.349631 -5.929390 0.795203 15.617001 10.561091 21.275489 11.467877 0.000000 0.000000 0.000000 -4.117384 -0.308334 4.012611 3.604136 -0.365369 13.663828 -9.947026 -23.075521 12.343106 0.000000 0.000000 0.000000 -0.714779 -0.548663 13.732385 -9.159904 2.688252 -28.689744 -1.598456 3.271481 28.644564 8.320651 -1.930372 -30.807708 0.000000 0.000000 0.000000 25.356534 -8.328112 2.275707 -4.944662 -33.320285 -1.946820 156.725957 -75.166391 -149.303095 0.000000 0.000000 0.000000 -2.892416 -3.092472 -1.143254 27.686858 26.513009 1.080014 71.289424 80.864450 69.384770 0.000000 0.000000 0.000000 
0.022906 0.944248 0.012855 -2.477002 0.258807 -10.095320 9.653398 0.105354 0.884468 -5.690883 0.837986 15.861835 11.211556 22.179421 12.220238 0.000000 0.000000 0.000000 -3.728056 -0.254357 3.499087 3.237466 -0.195555 14.706481 -9.851119 -23.002450 11.897460 0.000000 0.000000 0.000000 -1.017143 -0.459301 12.926380 -8.491877 2.476051 -29.752727 -2.368107 3.313621 30.289388 7.499804 -1.932441 -29.329607 0.000000 0.000000 0.000000 25.204485 -5.823785 1.620172 -6.509381 -31.557957 -1.560772 117.366054 -79.681421 -106.389429 0.000000 0.000000 0.000000 -3.781703 -6.056897 -2.037185 27.301198 23.678542 0.330457 42.372286 79.496873 41.105403 0.000000 0.000000 0.000000 
